<?xml version="1.0" encoding="utf-8"?>
<!-- Generator: Adobe Illustrator 25.3.0, SVG Export Plug-In . SVG Version: 6.00 Build 0)  -->
<svg version="1.1" id="Capa_1" xmlns="http://www.w3.org/2000/svg" xmlns:xlink="http://www.w3.org/1999/xlink" x="0px" y="0px"
	 viewBox="0 0 250 250" style="enable-background:new 0 0 250 250;" xml:space="preserve">
<style type="text/css">
	.st0{fill:#FFFFFF;}
</style>
<g>
	<polygon class="st0" points="120.5,106.8 184.1,106.8 199.4,125.4 199.4,118 211.3,118 211.3,141.1 230.8,162.6 163.7,162.6 	"/>
	<rect x="107.3" y="143.9" class="st0" width="5.1" height="5.1"/>
	<rect x="107.3" y="151.9" class="st0" width="5.1" height="5.1"/>
	<rect x="115.7" y="143.9" class="st0" width="5.1" height="5.1"/>
	<rect x="115.7" y="151.9" class="st0" width="5.1" height="5.1"/>
	<rect x="67.9" y="124.2" class="st0" width="5.1" height="5.1"/>
	<rect x="67.9" y="132.2" class="st0" width="5.1" height="5.1"/>
	<rect x="76.3" y="124.2" class="st0" width="5.1" height="5.1"/>
	<rect x="76.3" y="132.2" class="st0" width="5.1" height="5.1"/>
	<polygon class="st0" points="19,159.8 29.1,159.8 74.6,101.4 96.1,129.3 72.5,160.1 82.9,160.1 114,120.4 145.8,161.7 155.7,161.7 
		156.4,161.7 114,106.8 101.5,122.1 74.6,88 	"/>
	<polygon class="st0" points="80,87.1 100.8,113.6 110.2,102.7 156.4,102.7 144,87.1 	"/>
</g>
</svg>
