<?xml version="1.0" encoding="utf-8"?>
<!-- Generator: Adobe Illustrator 25.3.0, SVG Export Plug-In . SVG Version: 6.00 Build 0)  -->
<svg version="1.1" id="Capa_1" xmlns="http://www.w3.org/2000/svg" xmlns:xlink="http://www.w3.org/1999/xlink" x="0px" y="0px"
	 viewBox="0 0 250 120" style="enable-background:new 0 0 250 120;" xml:space="preserve">
<style type="text/css">
	.st0{fill:#FFFFFF;}
</style>
<g>
	<polygon class="st0" points="120.5,36.1 184.1,36.1 199.4,54.8 199.4,47.3 211.3,47.3 211.3,70.4 230.8,92 163.7,92 	"/>
	<rect x="107.3" y="73.2" class="st0" width="5.1" height="5.1"/>
	<rect x="107.3" y="81.3" class="st0" width="5.1" height="5.1"/>
	<rect x="115.7" y="73.2" class="st0" width="5.1" height="5.1"/>
	<rect x="115.7" y="81.3" class="st0" width="5.1" height="5.1"/>
	<rect x="67.9" y="53.6" class="st0" width="5.1" height="5.1"/>
	<rect x="67.9" y="61.5" class="st0" width="5.1" height="5.1"/>
	<rect x="76.3" y="53.6" class="st0" width="5.1" height="5.1"/>
	<rect x="76.3" y="61.5" class="st0" width="5.1" height="5.1"/>
	<polygon class="st0" points="19,89.1 29.1,89.1 74.6,30.7 96.1,58.6 72.5,89.4 82.9,89.4 114,49.8 145.8,91 155.7,91 156.4,91 
		114,36.1 101.5,51.4 74.6,17.3 	"/>
	<polygon class="st0" points="80,16.4 100.8,42.9 110.2,32.1 156.4,32.1 144,16.4 	"/>
</g>
</svg>
