<?xml version="1.0" encoding="utf-8"?>
<!-- Generator: Adobe Illustrator 22.0.1, SVG Export Plug-In . SVG Version: 6.00 Build 0)  -->
<svg version="1.1" id="Capa_1" xmlns="http://www.w3.org/2000/svg" xmlns:xlink="http://www.w3.org/1999/xlink" x="0px" y="0px"
	 viewBox="0 0 612 792" style="enable-background:new 0 0 612 792;" xml:space="preserve">
<style type="text/css">
	.st0{fill:#BA184E;}
	.st1{fill:#5162A5;}
</style>
<polygon class="st0" points="275.9,313.5 375.2,313.5 399.2,342.6 399.2,330.9 417.7,330.9 417.7,367 448.1,400.7 343.3,400.7 "/>
<rect x="255.2" y="371.4" class="st1" width="7.9" height="7.9"/>
<rect x="255.2" y="384" class="st1" width="7.9" height="7.9"/>
<rect x="268.3" y="371.4" class="st1" width="7.9" height="7.9"/>
<rect x="268.3" y="384" class="st1" width="7.9" height="7.9"/>
<rect x="193.6" y="340.7" class="st1" width="7.9" height="7.9"/>
<rect x="193.6" y="353.2" class="st1" width="7.9" height="7.9"/>
<rect x="206.8" y="340.7" class="st1" width="7.9" height="7.9"/>
<rect x="206.8" y="353.2" class="st1" width="7.9" height="7.9"/>
<polygon class="st1" points="117.2,396.2 133.1,396.2 204.1,305 237.7,348.6 200.8,396.7 217.1,396.7 265.7,334.8 315.3,399.3 
	330.9,399.3 331.9,399.3 265.7,313.5 246.2,337.3 204.1,284.1 "/>
<polygon class="st0" points="212.5,282.7 245,324.1 259.8,307.1 331.9,307.1 312.5,282.7 "/>
<g>
	<path class="st0" d="M107.3,462.9c-6.3,6.2-14.5,9.2-23.4,9.2c-22.9,0-32.6-15.8-32.7-31.8c-0.1-16.1,10.4-32.5,32.7-32.5
		c8.4,0,16.3,3.2,22.6,9.4l-7.7,7.5c-4-4-9.5-5.8-14.9-5.8c-14.9,0-21.3,11.1-21.2,21.4c0.1,10.2,6,20.9,21.2,20.9
		c5.4,0,11.4-2.2,15.5-6.2L107.3,462.9z"/>
	<path class="st0" d="M145.6,427.2h10.3v43.4h-10.1l-0.5-6.3c-2.5,5.1-9.2,7.6-14.1,7.7c-12.9,0.1-22.4-7.8-22.4-23.1
		c0-15,9.9-22.8,22.6-22.7c5.8,0,11.4,2.7,13.8,7L145.6,427.2z M119.5,448.9c0,8.3,5.7,13.2,12.8,13.2c16.9,0,16.9-26.3,0-26.3
		C125.3,435.8,119.5,440.6,119.5,448.9z"/>
	<path class="st0" d="M174.9,427.2l0.8,5c3.3-5.4,7.8-6.2,12.2-6.2c4.5,0,8.8,1.8,11.2,4.1l-4.8,9.3c-2.2-1.8-4.2-2.8-7.7-2.8
		c-5.6,0-10.8,3-10.8,11v22.9H165v-43.4H174.9z"/>
	<path class="st0" d="M203.1,488.7v-61.5h10l0.7,6c3.3-4.8,9.2-7,14.1-7c13.4,0,22.3,9.9,22.3,22.7c0,12.7-8,22.7-21.9,22.7
		c-4.6,0-11.4-1.4-14.4-6.2v23.2H203.1z M239.5,449c0-6.8-4.6-12.3-12.3-12.3s-12.3,5.5-12.3,12.3c0,6.8,5,12.3,12.3,12.3
		C234.5,461.3,239.5,455.7,239.5,449z"/>
	<path class="st0" d="M269.9,415c0,8.4-12.7,8.4-12.7,0S269.9,406.6,269.9,415z M258.2,427v43.6h10.7V427H258.2z"/>
	<path class="st0" d="M310.5,470.6v-22.7c0-6.6-3.6-11.6-10.5-11.6c-6.6,0-11.1,5.5-11.1,12.1v22.2h-10.6v-43.5h9.6l0.7,5.9
		c4.4-4.3,8.8-6.5,14.3-6.5c10.2,0,18.4,7.7,18.4,21.3v22.8H310.5z"/>
	<path class="st0" d="M343.8,415v12.3h12v9.2h-12.1v18.7c0,4.1,2.3,6.2,5.6,6.2c1.7,0,3.6-0.5,5.2-1.3l3,9.2
		c-3.1,1.2-5.6,1.8-8.9,1.8c-9.4,0.4-15.6-5-15.6-15.8v-18.7H325v-9.2h8.1v-11.2L343.8,415z"/>
	<path class="st0" d="M372.9,452.7c0.7,5.4,5.4,9.2,12.9,9.2c4,0,9.2-1.5,11.6-4l6.9,6.8c-4.6,4.8-12.1,7-18.7,7
		c-15,0-23.9-9.2-23.9-23.1c0-13.2,9-22.7,23.1-22.7c14.5,0,23.6,9,21.9,26.8H372.9z M396.5,443.8c-0.7-5.6-5.1-8.4-11.3-8.4
		c-5.8,0-10.6,2.8-12.1,8.4H396.5z"/>
	<path class="st0" d="M425,427.2l0.8,5c3.3-5.4,7.8-6.2,12.2-6.2c4.5,0,8.8,1.8,11.2,4.1l-4.8,9.3c-2.2-1.8-4.2-2.8-7.7-2.8
		c-5.6,0-10.8,3-10.8,11v22.9h-10.7v-43.4H425z"/>
	<path class="st0" d="M465,415c0,8.4-12.7,8.4-12.7,0S465,406.6,465,415z M453.3,427v43.6H464V427H453.3z"/>
	<path class="st0" d="M508.1,427.2h10.3v43.4h-10.1l-0.5-6.3c-2.5,5.1-9.2,7.6-14.1,7.7c-12.8,0.1-22.4-7.8-22.4-23.1
		c0-15,9.9-22.8,22.6-22.7c5.8,0,11.4,2.7,13.8,7L508.1,427.2z M482,448.9c0,8.3,5.7,13.2,12.8,13.2c16.9,0,16.9-26.3,0-26.3
		C487.8,435.8,482,440.6,482,448.9z"/>
</g>
<g>
	<path d="M390.1,477.7v13.1h2.5v3.8h-2.5v4h-3.9v-4H375l-0.4-4l9.5-13H390.1z M386.2,490.8v-9.7l-7.1,9.7H386.2z"/>
	<path d="M420.1,496c-2.2,2.1-5,3.1-8,3.1c-7.8,0-11.1-5.4-11.1-10.8c0-5.5,3.5-11.1,11.1-11.1c2.9,0,5.5,1.1,7.7,3.2l-2.6,2.5
		c-1.4-1.4-3.2-2-5.1-2c-5.1,0-7.3,3.8-7.2,7.3c0,3.5,2,7.1,7.2,7.1c1.8,0,3.9-0.8,5.3-2.1L420.1,496z"/>
	<path d="M433.2,483.8h3.5v14.8h-3.5l-0.2-2.2c-0.8,1.7-3.2,2.6-4.8,2.6c-4.4,0-7.6-2.7-7.6-7.9c0-5.1,3.4-7.8,7.7-7.7
		c2,0,3.9,0.9,4.7,2.4L433.2,483.8z M424.3,491.2c0,2.8,2,4.5,4.4,4.5c5.8,0,5.8-9,0-9C426.3,486.7,424.3,488.4,424.3,491.2z"/>
	<path d="M449.6,498.6v-7.9c0-1.9-1-3.7-3-3.7c-2,0-3.2,1.8-3.2,3.7v7.9h-3.7v-14.8h3.4l0.3,1.8c0.8-1.5,2.5-2,3.9-2
		c1.8,0,3.5,0.7,4.4,2.8c1.3-2.1,3-2.7,4.9-2.7c4.2,0,6.3,2.6,6.3,7v8h-3.7v-8c0-2-0.8-3.6-2.8-3.6c-2,0-3.2,1.7-3.2,3.7v7.9H449.6z
		"/>
	<path d="M470.7,479.7c0,2.8-4.3,2.8-4.3,0C466.3,476.8,470.7,476.8,470.7,479.7z M466.7,483.8v14.8h3.7v-14.8H466.7z"/>
	<path d="M484.5,498.6v-7.7c0-2.2-1.2-4-3.6-4c-2.2,0-3.8,1.9-3.8,4.1v7.6h-3.6v-14.8h3.3l0.2,2c1.5-1.5,3-2.2,4.9-2.2
		c3.5,0,6.3,2.6,6.3,7.3v7.8H484.5z"/>
	<path d="M506,491.2c0,4.3-2.9,7.7-7.7,7.7s-7.7-3.5-7.7-7.7c0-4.2,2.9-7.7,7.6-7.7C503,483.5,506,487,506,491.2z M494.3,491.2
		c0,2.2,1.3,4.3,4,4.3s4-2.1,4-4.3c0-2.2-1.6-4.4-4-4.4C495.7,486.9,494.3,489,494.3,491.2z"/>
	<path d="M518.2,487.8c-1-1-2.2-1.3-3.7-1.3c-1.7,0-2.7,0.5-2.7,1.5c0,1,0.9,1.5,2.8,1.6c2.8,0.2,6.3,0.8,6.3,4.7
		c0,2.6-2.1,4.9-6.4,4.9c-2.3,0-4.7-0.4-6.8-2.6l1.8-2.6c1.1,1.2,3.5,2,5.1,2.1c1.4,0,2.7-0.7,2.7-1.8c0-1-0.8-1.4-2.9-1.6
		c-2.8-0.2-6.1-1.2-6.1-4.6c0-3.4,3.5-4.6,6.2-4.6c2.3,0,4,0.4,5.8,1.9L518.2,487.8z"/>
</g>
</svg>
