<?xml version="1.0" encoding="utf-8"?>
<!-- Generator: Adobe Illustrator 25.3.0, SVG Export Plug-In . SVG Version: 6.00 Build 0)  -->
<svg version="1.1" id="Capa_1" xmlns="http://www.w3.org/2000/svg" xmlns:xlink="http://www.w3.org/1999/xlink" x="0px" y="0px"
	 viewBox="0 0 250 250" style="enable-background:new 0 0 250 250;" xml:space="preserve">
<style type="text/css">
	.st0{fill:#BB194F;}
	.st1{fill:#5263A7;}
</style>
<g>
	<polygon class="st0" points="120.54,106.82 184.09,106.82 199.45,125.45 199.45,117.96 211.29,117.96 211.29,141.06 230.75,162.63 
		163.68,162.63 	"/>
	<rect x="107.29" y="143.88" class="st1" width="5.06" height="5.06"/>
	<rect x="107.29" y="151.94" class="st1" width="5.06" height="5.06"/>
	<rect x="115.68" y="143.88" class="st1" width="5.06" height="5.06"/>
	<rect x="115.68" y="151.94" class="st1" width="5.06" height="5.06"/>
	<rect x="67.87" y="124.23" class="st1" width="5.06" height="5.06"/>
	<rect x="67.87" y="132.23" class="st1" width="5.06" height="5.06"/>
	<rect x="76.32" y="124.23" class="st1" width="5.06" height="5.06"/>
	<rect x="76.32" y="132.23" class="st1" width="5.06" height="5.06"/>
	<polygon class="st1" points="18.97,159.75 29.15,159.75 74.59,101.38 96.09,129.29 72.48,160.07 82.91,160.07 114.01,120.45 
		145.76,161.73 155.74,161.73 156.38,161.73 114.01,106.82 101.53,122.05 74.59,88.01 	"/>
	<polygon class="st0" points="79.97,87.11 100.77,113.61 110.24,102.73 156.38,102.73 143.97,87.11 	"/>
</g>
</svg>
